<?xml version="1.0" encoding="utf-8"?>
<!-- Generator: Adobe Illustrator 16.0.0, SVG Export Plug-In . SVG Version: 6.00 Build 0)  -->
<!DOCTYPE svg PUBLIC "-//W3C//DTD SVG 1.1//EN" "http://www.w3.org/Graphics/SVG/1.1/DTD/svg11.dtd">
<svg version="1.1" xmlns="http://www.w3.org/2000/svg" xmlns:xlink="http://www.w3.org/1999/xlink" x="0px" y="0px"
	 width="520.001px" height="438.541px" viewBox="0 0 520.001 438.541" enable-background="new 0 0 520.001 438.541"
	 xml:space="preserve">
<g id="BACKGROUND">
</g>
<g id="OBJECTS">
	<g>
		<g>
			<g>
				<path fill="#006E92" d="M462.017,307.359c-3.747-4.389-8.102-8.185-12.838-11.229c-7.317-4.699-15.478-7.7-22.783-12.423
					c-7.306-4.724-14.007-11.781-15.608-20.857c-1.417-8.036,1.454-16.406,6.016-22.925c6.203-8.867,15.26-14.635,22.352-22.588
					c6.965-7.811,13.128-16.483,17.969-26.02c9.809-19.326,13.597-41.61,9.601-63.339c-6.501-35.353-38.164-50.667-68.77-51.941
					c-33.065-1.376-66.107,7.023-98.778,10.744c-21.679,2.468-44.643,1.446-64.316-9.719
					c-20.413-11.586-35.394-31.667-54.951-44.678c-26.403-17.565-60.835-14.225-89.496-1.437
					c-15.884,7.086-31.144,17.225-41.283,32.285c-10.141,15.061-14.363,35.693-7.635,52.844
					c10.256,26.14,37.782,33.095,56.008,50.43c19.537,18.583,27.232,47.573,4.985,67.57c-7.419,6.666-16.02,11.572-23.974,17.466
					c-14.082,10.437-26.475,24.616-31.923,42.165c-22.246,71.643,70.017,89.342,115.617,86.338
					c20.718-1.365,40.435-11.371,60.443-16.979c30.157-8.451,58.766-6.27,85.039,13.229c13.824,10.259,25.711,23.754,40.783,31.673
					c16.685,8.766,36.218,9.928,54.351,5.704c34-7.922,82.857-38.143,70.977-83.929C471.63,321.374,467.467,313.742,462.017,307.359
					z"/>
			</g>
			<g>
				<path fill="#087F9B" d="M482.254,251.399c-0.026,0-0.05,0.002-0.075,0.002c0.048-0.418,0.075-0.839,0.075-1.268
					c0-6.051-4.903-10.954-10.953-10.954c-2.66,0-5.1,0.949-6.997,2.525c-1.898-1.576-4.336-2.525-6.995-2.525
					c-6.05,0-10.955,4.903-10.955,10.954c0,0.429,0.028,0.85,0.077,1.268c-0.026,0-0.05-0.002-0.077-0.002
					c-6.049,0-10.953,4.904-10.953,10.954c0,6.049,4.904,10.953,10.953,10.953c0.536,0,1.061-0.04,1.575-0.114h15.019
					c0.514,0.074,1.038,0.114,1.572,0.114s1.06-0.04,1.573-0.114h14.587c0.515,0.074,1.04,0.114,1.574,0.114
					c6.051,0,10.953-4.904,10.953-10.953C493.207,256.303,488.305,251.399,482.254,251.399z"/>
				<path fill="#087F9B" d="M343.931,29.716c-4.069,0-7.671,1.99-9.892,5.049c-0.698-0.96-1.529-1.814-2.473-2.536
					c0.57-3.715-0.572-7.643-3.435-10.505c-4.772-4.771-12.509-4.771-17.28,0c-2.345,2.343-3.533,5.402-3.575,8.473
					c-1.079-0.311-2.217-0.481-3.395-0.481c-6.748,0-12.221,5.471-12.221,12.22c0,6.748,5.473,12.219,12.221,12.219
					c0.596,0,1.181-0.045,1.755-0.127h16.755c0.574,0.083,1.159,0.127,1.756,0.127c0.596,0,1.181-0.045,1.755-0.127h16.273
					c0.573,0.083,1.158,0.127,1.755,0.127c6.749,0,12.22-5.471,12.22-12.219C356.15,35.188,350.68,29.716,343.931,29.716z"/>
				<path fill="#087F9B" d="M86.712,201.129c-4.076,0-7.686,1.994-9.911,5.058c-0.697-0.963-1.531-1.819-2.476-2.541
					c0.572-3.722-0.574-7.656-3.441-10.523c-4.78-4.781-12.53-4.781-17.311,0c-2.349,2.348-3.54,5.411-3.583,8.488
					c-1.079-0.313-2.22-0.482-3.399-0.482c-6.762,0-12.241,5.48-12.241,12.241c0,6.762,5.479,12.242,12.241,12.242
					c0.598,0,1.185-0.045,1.759-0.127h16.784c0.575,0.082,1.16,0.127,1.758,0.127c0.599,0,1.185-0.045,1.758-0.127h16.304
					c0.574,0.082,1.161,0.127,1.759,0.127c6.76,0,12.242-5.48,12.242-12.242C98.954,206.609,93.472,201.129,86.712,201.129z"/>
				<path fill="#087F9B" d="M512.375,118.382c-1.287,0-2.498,0.32-3.559,0.881c0.128-2.54-0.777-5.123-2.717-7.063
					c-3.64-3.638-9.536-3.638-13.174,0c-1.854,1.854-2.761,4.293-2.726,6.722c-0.873-0.347-1.822-0.54-2.819-0.54
					c-4.21,0-7.625,3.414-7.625,7.625c0,4.212,3.415,7.626,7.625,7.626c0.373,0,0.739-0.028,1.096-0.079h10.457
					c0.356,0.051,0.722,0.079,1.094,0.079c0.373,0,0.738-0.028,1.098-0.079h10.154c0.357,0.051,0.723,0.079,1.096,0.079
					c4.212,0,7.626-3.414,7.626-7.626C520.001,121.796,516.587,118.382,512.375,118.382z"/>
				<path fill="#087F9B" d="M32.62,169.135c-1.287,0-2.499,0.319-3.561,0.882c0.13-2.541-0.776-5.124-2.717-7.063
					c-3.637-3.638-9.534-3.638-13.173,0c-1.853,1.853-2.76,4.292-2.724,6.722c-0.873-0.348-1.823-0.54-2.818-0.54
					c-4.214,0-7.628,3.414-7.628,7.625s3.414,7.626,7.628,7.626c0.371,0,0.736-0.028,1.094-0.08h10.456
					c0.357,0.052,0.724,0.08,1.095,0.08c0.373,0,0.739-0.028,1.096-0.08h10.156c0.357,0.052,0.723,0.08,1.096,0.08
					c4.21,0,7.625-3.415,7.625-7.626S36.83,169.135,32.62,169.135z"/>
			</g>
		</g>
		<g>
			<g>
				<g>
					<g>
						<g>
							<path fill="#9BB4FE" d="M169.252,373.774l-4.559-2.046l-2.179-0.979l-7.289-3.275c-1.052-2.391-2.442-4.438-4.073-6.245
								c-0.59-0.647-1.212-1.271-1.86-1.86c-4.412-4.036-10.057-6.803-15.391-9.753c-1.426-0.79-2.831-1.592-4.18-2.438
								c-0.021-0.013-0.045-0.027-0.065-0.041c-8.278-5.183-17.324-12.041-19.499-22.146c-0.718-3.333-0.583-6.774,0.179-10.082
								c0.048-0.207,0.097-0.413,0.151-0.616c0.1-0.391,0.206-0.783,0.319-1.173c1.745-5.989,5.041-11.536,10.287-14.02
								c0.656-0.315,1.35-0.583,2.076-0.786c1.59-0.468,3.328-0.667,5.231-0.551c2.357,0.143,4.652,0.656,6.872,1.439
								c0.699,0.242,1.389,0.514,2.066,0.808c6.004,2.594,11.432,7.008,16.088,11.185c1.215,1.09,2.37,2.234,3.464,3.44
								c0.524,0.564,1.036,1.15,1.529,1.746c1.809,2.167,3.443,4.491,4.9,6.927c0.358,0.6,0.706,1.211,1.041,1.823
								c1.608,2.935,2.972,6.021,4.08,9.208c0.334,0.961,0.644,1.93,0.931,2.911C172.894,349.198,172.95,362.273,169.252,373.774z"
								/>
						</g>
						<path fill="#FFFFFF" d="M164.693,371.728l-2.179-0.979c-0.705-2.243-1.46-4.471-2.2-6.707
							c-0.163,0.038-0.346,0.027-0.542-0.059c-2.585-1.12-5.634-2.465-8.62-2.755c-0.59-0.647-1.212-1.271-1.86-1.86
							c3.472-0.215,7.177,1.221,10.328,2.571c-0.906-2.787-1.772-5.593-2.48-8.448c-0.484-1.936-1.146-3.79-1.926-5.58
							c-3.136,2.613-8.019,2.603-11.86,2.524c-3.168-0.064-6.315-0.391-9.452-0.82c-1.426-0.79-2.831-1.592-4.18-2.438
							c0.052,0,0.108,0.001,0.165,0.012c3.978,0.616,7.968,1.186,11.989,1.382c3.851,0.189,9.239,0.51,12.364-2.204
							c0.064-0.06,0.13-0.099,0.195-0.134c-2.328-4.786-5.449-9.181-8.315-13.72c-1.669-2.642-3.276-5.326-4.892-8.002
							c-5.319,2.278-12.256-0.608-17.133-2.687c-4.735-2.019-9.193-4.572-13.76-6.916c0.048-0.207,0.097-0.413,0.151-0.616
							c0.1-0.391,0.206-0.783,0.319-1.173c4.149,2.131,8.203,4.451,12.465,6.362c4.675,2.098,11.708,5.459,17.001,3.454
							c-0.856-1.404-1.714-2.804-2.597-4.191c-3.267-5.137-6.702-10.268-10.863-14.727c-1.547-1.654-3.507-3.641-5.719-4.918
							c0.656-0.315,1.35-0.583,2.076-0.786c1.79,1.254,3.396,2.824,4.749,4.244c4.061,4.266,7.421,9.07,10.56,14.036
							c-0.021-3.174-0.793-6.466-1.398-9.486c-0.535-2.648-1.123-5.289-1.807-7.905c0.699,0.242,1.389,0.514,2.066,0.808
							c0.567,2.271,1.076,4.56,1.536,6.849c0.784,3.888,1.768,8.144,1.29,12.131c-0.011,0.079-0.032,0.153-0.056,0.221
							c0.707,1.155,1.407,2.315,2.104,3.474c0.056,0.067,0.103,0.143,0.139,0.227c1.936,3.218,3.86,6.44,5.894,9.567
							c0.065,0.097,0.127,0.19,0.188,0.285c2.677-2.628,4.486-6.235,5.922-9.645c1.115-2.656,2.153-5.555,2.536-8.483
							c0.524,0.564,1.036,1.15,1.529,1.746c-0.503,2.566-1.397,5.075-2.389,7.431c-1.588,3.769-3.617,7.633-6.601,10.497
							c1.38,2.131,2.717,4.238,3.956,6.379c3.324-5.785,6.647-11.57,9.934-17.38c0.358,0.6,0.706,1.211,1.041,1.823
							c-3.293,5.807-6.615,11.598-9.944,17.384c1.869,3.43,3.454,6.99,4.532,10.903c1.643-2.889,3.443-5.685,5.044-8.597
							c1.839-3.353,3.322-6.846,4.448-10.482c0.334,0.961,0.644,1.93,0.931,2.911c-0.934,2.637-2.053,5.205-3.394,7.699
							c-1.905,3.545-4.135,6.904-6.063,10.44c-0.088,0.159-0.205,0.272-0.334,0.354
							C161.047,361.145,163.028,366.393,164.693,371.728z"/>
					</g>
					<g>
						<g>
							<linearGradient id="SVGID_1_" gradientUnits="userSpaceOnUse" x1="189.1992" y1="331.1362" x2="82.1028" y2="381.1146">
								<stop  offset="0.0233" style="stop-color:#337E75"/>
								<stop  offset="0.3894" style="stop-color:#3F9780"/>
								<stop  offset="0.7413" style="stop-color:#48A988"/>
								<stop  offset="1" style="stop-color:#4BAF8B"/>
							</linearGradient>
							<path fill="url(#SVGID_1_)" d="M188.235,354.294l-4.094,2.865l-1.955,1.368l-6.55,4.583
								c-2.589-0.323-5.062-0.178-7.448,0.298c-0.859,0.173-1.713,0.388-2.553,0.643c-5.725,1.719-10.993,5.15-16.261,8.219
								c-1.408,0.818-2.818,1.614-4.236,2.339c-0.02,0.012-0.046,0.025-0.067,0.036c-8.693,4.455-19.217,8.707-29.011,5.395
								c-3.228-1.091-6.115-2.97-8.565-5.32c-0.153-0.145-0.305-0.294-0.451-0.444c-0.283-0.286-0.566-0.578-0.844-0.874
								c-4.249-4.568-7.323-10.24-6.767-16.019c0.064-0.728,0.193-1.459,0.388-2.187c0.414-1.604,1.133-3.198,2.209-4.773
								c1.33-1.952,2.949-3.66,4.759-5.166c0.563-0.475,1.15-0.928,1.751-1.36c5.306-3.825,11.875-6.224,17.849-8.083
								c1.558-0.482,3.133-0.89,4.73-1.21c0.753-0.161,1.518-0.3,2.283-0.419c2.787-0.441,5.62-0.657,8.459-0.66
								c0.699,0.001,1.401,0.015,2.099,0.043c3.345,0.123,6.693,0.53,9.998,1.215c0.997,0.207,1.987,0.437,2.977,0.692
								C168.998,338.573,180.254,345.225,188.235,354.294z"/>
						</g>
						<path fill="#FFFFFF" d="M184.142,357.16l-1.955,1.368c-2.288-0.542-4.59-1.035-6.887-1.545
							c-0.052,0.158-0.155,0.311-0.328,0.434c-2.288,1.646-5.004,3.576-6.783,5.992c-0.859,0.173-1.713,0.388-2.553,0.643
							c1.596-3.092,4.727-5.537,7.502-7.552c-2.858-0.648-5.71-1.345-8.526-2.196c-1.91-0.577-3.842-0.96-5.778-1.208
							c0.637,4.033-1.874,8.219-3.91,11.479c-1.678,2.687-3.573,5.223-5.548,7.695c-1.408,0.818-2.818,1.614-4.236,2.339
							c0.027-0.045,0.058-0.093,0.097-0.136c2.567-3.1,5.1-6.231,7.329-9.586c2.135-3.208,5.173-7.672,4.443-11.747
							c-0.019-0.087-0.02-0.161-0.015-0.235c-5.302-0.453-10.678-0.026-16.043,0.109c-3.123,0.079-6.251,0.083-9.379,0.101
							c-0.769,5.734-6.803,10.211-11.085,13.335c-4.159,3.031-8.637,5.552-12.991,8.27c-0.153-0.145-0.305-0.294-0.451-0.444
							c-0.283-0.286-0.566-0.578-0.844-0.874c3.957-2.472,8.025-4.763,11.85-7.443c4.2-2.94,10.689-7.257,11.681-12.829
							c-1.646,0.016-3.287,0.034-4.931,0.08c-6.084,0.175-12.25,0.495-18.213,1.782c-2.214,0.48-4.924,1.146-7.153,2.392
							c0.064-0.728,0.193-1.459,0.388-2.187c1.995-0.893,4.167-1.469,6.08-1.903c5.743-1.3,11.592-1.724,17.463-1.874
							c-2.735-1.61-5.958-2.632-8.862-3.659c-2.548-0.9-5.116-1.746-7.713-2.503c0.563-0.475,1.15-0.928,1.751-1.36
							c2.242,0.68,4.467,1.414,6.668,2.192c3.74,1.318,7.899,2.654,11.08,5.107c0.061,0.05,0.112,0.106,0.158,0.161
							c1.355-0.016,2.711-0.022,4.063-0.026c0.084-0.014,0.175-0.015,0.264-0.001c3.756-0.014,7.509-0.016,11.237-0.159
							c0.115-0.007,0.229-0.01,0.342-0.014c-0.888-3.647-3.059-7.049-5.248-10.028c-1.71-2.319-3.668-4.696-5.985-6.525
							c0.753-0.161,1.518-0.3,2.283-0.419c1.945,1.746,3.642,3.802,5.157,5.858c2.42,3.296,4.699,7.019,5.63,11.048
							c2.536-0.094,5.031-0.161,7.506-0.128c-3.266-5.819-6.529-11.639-9.834-17.438c0.699,0.001,1.401,0.015,2.099,0.043
							c3.299,5.803,6.569,11.623,9.833,17.447c3.902,0.152,7.771,0.616,11.686,1.695c-1.639-2.892-3.117-5.87-4.799-8.738
							c-1.936-3.295-4.175-6.36-6.722-9.189c0.997,0.207,1.987,0.437,2.977,0.692c1.785,2.152,3.418,4.429,4.873,6.859
							c2.066,3.453,3.81,7.088,5.857,10.556c0.092,0.157,0.131,0.315,0.134,0.469C173.187,354.868,178.707,355.857,184.142,357.16z"
							/>
					</g>
				</g>
				<g>
					<g>
						<g>
							<path fill="#9BB4FE" d="M201.542,376.619l-3.431,3.632l-1.641,1.734l-5.491,5.81c-2.602,0.206-4.993,0.847-7.236,1.794
								c-0.805,0.343-1.599,0.725-2.37,1.143c-5.262,2.839-9.729,7.262-14.27,11.33c-1.215,1.085-2.435,2.147-3.677,3.143
								c-0.019,0.018-0.041,0.036-0.06,0.051c-7.616,6.114-17.067,12.401-27.327,11.133c-3.382-0.419-6.587-1.677-9.462-3.485
								c-0.18-0.111-0.358-0.226-0.533-0.344c-0.334-0.223-0.67-0.451-1.001-0.687c-5.082-3.617-9.238-8.554-9.857-14.324
								c-0.081-0.726-0.105-1.468-0.061-2.22c0.082-1.656,0.464-3.363,1.201-5.122c0.91-2.18,2.149-4.179,3.619-6.019
								c0.456-0.578,0.939-1.141,1.441-1.685c4.425-4.817,10.376-8.491,15.854-11.516c1.426-0.788,2.888-1.504,4.386-2.141
								c0.706-0.309,1.428-0.599,2.153-0.87c2.642-0.994,5.372-1.776,8.152-2.351c0.684-0.141,1.375-0.27,2.064-0.384
								c3.299-0.554,6.662-0.826,10.037-0.824c1.018,0,2.035,0.025,3.055,0.078C179.531,365.097,191.896,369.344,201.542,376.619z"
								/>
						</g>
						<path fill="#FFFFFF" d="M198.111,380.25l-1.641,1.734c-2.351-0.071-4.703-0.089-7.058-0.126
							c-0.018,0.166-0.088,0.336-0.232,0.491c-1.909,2.074-4.183,4.513-5.438,7.238c-0.805,0.343-1.599,0.725-2.37,1.143
							c0.939-3.35,3.513-6.377,5.827-8.908c-2.932-0.061-5.865-0.165-8.795-0.434c-1.989-0.181-3.957-0.165-5.905-0.019
							c1.438,3.822-0.177,8.43-1.515,12.034c-1.102,2.969-2.445,5.835-3.882,8.656c-1.215,1.085-2.435,2.147-3.677,3.143
							c0.018-0.049,0.036-0.1,0.066-0.15c1.89-3.555,3.739-7.134,5.245-10.869c1.445-3.571,3.521-8.557,1.985-12.401
							c-0.036-0.08-0.052-0.153-0.062-0.227c-5.286,0.624-10.464,2.127-15.691,3.342c-3.044,0.707-6.107,1.344-9.166,1.989
							c0.402,5.771-4.604,11.375-8.17,15.296c-3.464,3.809-7.34,7.179-11.057,10.719c-0.18-0.111-0.358-0.226-0.533-0.344
							c-0.334-0.223-0.67-0.451-1.001-0.687c3.376-3.218,6.9-6.283,10.105-9.681c3.52-3.726,9.007-9.262,8.853-14.92
							c-1.606,0.347-3.211,0.698-4.813,1.073c-5.923,1.397-11.899,2.955-17.48,5.419c-2.069,0.916-4.59,2.115-6.522,3.784
							c-0.081-0.726-0.105-1.468-0.061-2.22c1.771-1.278,3.782-2.279,5.572-3.091c5.362-2.431,11.005-4.024,16.725-5.358
							c-3.005-1.024-6.365-1.376-9.417-1.796c-2.679-0.367-5.365-0.678-8.06-0.896c0.456-0.578,0.939-1.141,1.441-1.685
							c2.331,0.211,4.659,0.483,6.973,0.802c3.928,0.537,8.271,1.007,11.881,2.769c0.07,0.037,0.133,0.081,0.189,0.126
							c1.323-0.288,2.65-0.568,3.974-0.844c0.079-0.03,0.168-0.05,0.259-0.056c3.674-0.77,7.351-1.529,10.975-2.422
							c0.11-0.028,0.22-0.056,0.33-0.081c-1.604-3.393-4.414-6.288-7.162-8.766c-2.142-1.927-4.538-3.859-7.179-5.185
							c0.706-0.309,1.428-0.599,2.153-0.87c2.257,1.319,4.334,2.989,6.231,4.7c3.036,2.738,6.019,5.925,7.743,9.686
							c2.465-0.604,4.895-1.174,7.325-1.64c-4.371-5.041-8.742-10.085-13.147-15.097c0.684-0.141,1.375-0.27,2.064-0.384
							c4.4,5.021,8.777,10.061,13.147,15.109c3.854-0.639,7.738-0.966,11.788-0.697c-2.188-2.501-4.237-5.12-6.462-7.591
							c-2.56-2.839-5.371-5.388-8.437-7.646c1.018,0,2.035,0.025,3.055,0.078c2.184,1.748,4.242,3.649,6.156,5.736
							c2.721,2.964,5.16,6.175,7.866,9.158c0.121,0.136,0.189,0.282,0.226,0.432C186.918,380.214,192.524,380.069,198.111,380.25z"
							/>
					</g>
					<g>
						<g>
							<linearGradient id="SVGID_2_" gradientUnits="userSpaceOnUse" x1="212.5742" y1="381.2251" x2="105.4777" y2="431.2035">
								<stop  offset="0.0233" style="stop-color:#337E75"/>
								<stop  offset="0.3894" style="stop-color:#3F9780"/>
								<stop  offset="0.7413" style="stop-color:#48A988"/>
								<stop  offset="1" style="stop-color:#4BAF8B"/>
							</linearGradient>
							<path fill="url(#SVGID_2_)" d="M189.388,352.286l1.361,4.807l0.648,2.299l2.174,7.69c-1.157,2.341-1.832,4.723-2.169,7.132
								c-0.118,0.87-0.195,1.747-0.231,2.624c-0.259,5.972,1.249,12.074,2.416,18.058c0.311,1.599,0.599,3.192,0.816,4.771
								c0.003,0.024,0.009,0.052,0.012,0.075c1.348,9.675,1.903,21.011-4.444,29.171c-2.092,2.69-4.815,4.799-7.84,6.341
								c-0.189,0.097-0.379,0.19-0.569,0.28c-0.363,0.174-0.731,0.345-1.102,0.508c-5.712,2.511-12.081,3.55-17.354,1.124
								c-0.666-0.302-1.314-0.66-1.938-1.085c-1.378-0.919-2.648-2.122-3.782-3.655c-1.404-1.898-2.486-3.988-3.313-6.192
								c-0.263-0.689-0.498-1.392-0.709-2.102c-1.868-6.268-1.973-13.262-1.765-19.514c0.056-1.631,0.189-3.251,0.411-4.865
								c0.097-0.765,0.217-1.531,0.356-2.294c0.498-2.777,1.227-5.523,2.158-8.204c0.23-0.662,0.474-1.32,0.729-1.97
								c1.214-3.118,2.702-6.145,4.435-9.041c0.522-0.875,1.064-1.734,1.632-2.584C168.215,365.284,178.199,356.841,189.388,352.286
								z"/>
						</g>
						<path fill="#FFFFFF" d="M190.749,357.092l0.648,2.299c-1.266,1.982-2.486,3.993-3.726,5.995
							c0.134,0.102,0.244,0.247,0.304,0.453c0.802,2.701,1.731,5.901,3.427,8.374c-0.118,0.87-0.195,1.747-0.231,2.624
							c-2.395-2.524-3.675-6.285-4.664-9.568c-1.555,2.485-3.147,4.95-4.879,7.328c-1.174,1.616-2.17,3.313-3.041,5.063
							c4.02,0.725,7.146,4.472,9.556,7.468c1.985,2.467,3.76,5.088,5.444,7.768c0.311,1.599,0.599,3.192,0.816,4.771
							c-0.033-0.041-0.068-0.085-0.098-0.134c-2.082-3.445-4.208-6.868-6.642-10.075c-2.329-3.072-5.546-7.409-9.634-8.06
							c-0.088-0.01-0.159-0.034-0.227-0.064c-2.172,4.86-3.535,10.075-5.172,15.188c-0.951,2.976-1.977,5.933-2.989,8.89
							c5.162,2.612,7.408,9.783,8.948,14.854c1.496,4.925,2.403,9.982,3.54,14.988c-0.189,0.097-0.379,0.19-0.569,0.28
							c-0.363,0.174-0.731,0.345-1.102,0.508c-1.035-4.548-1.861-9.145-3.136-13.638c-1.395-4.934-3.338-12.48-8.275-15.248
							c-0.525,1.558-1.047,3.116-1.545,4.682c-1.834,5.806-3.56,11.732-4.304,17.788c-0.274,2.246-0.536,5.026-0.094,7.54
							c-0.666-0.302-1.314-0.66-1.938-1.085c-0.188-2.177-0.018-4.417,0.204-6.368c0.659-5.851,2.181-11.513,3.97-17.109
							c-2.42,2.057-4.444,4.763-6.369,7.169c-1.689,2.11-3.332,4.257-4.899,6.461c-0.263-0.689-0.498-1.392-0.709-2.102
							c1.377-1.895,2.803-3.753,4.263-5.577c2.475-3.098,5.104-6.586,8.466-8.783c0.067-0.042,0.138-0.072,0.206-0.097
							c0.431-1.284,0.87-2.566,1.31-3.846c0.015-0.084,0.045-0.169,0.086-0.251c1.223-3.55,2.454-7.097,3.544-10.663
							c0.032-0.112,0.065-0.221,0.1-0.327c-3.736-0.361-7.662,0.569-11.196,1.66c-2.754,0.85-5.64,1.918-8.131,3.505
							c0.097-0.765,0.217-1.531,0.356-2.294c2.29-1.263,4.786-2.189,7.228-2.943c3.909-1.203,8.175-2.132,12.286-1.686
							c0.745-2.425,1.502-4.805,2.346-7.13c-6.568,1.17-13.138,2.339-19.701,3.555c0.23-0.662,0.474-1.32,0.729-1.97
							c6.565-1.206,13.138-2.382,19.71-3.549c1.428-3.636,3.137-7.139,5.442-10.478c-3.269,0.597-6.567,1.014-9.829,1.657
							c-3.749,0.744-7.378,1.852-10.889,3.328c0.522-0.875,1.064-1.734,1.632-2.584c2.621-0.979,5.308-1.772,8.08-2.348
							c3.941-0.817,7.947-1.267,11.896-2.061c0.18-0.037,0.342-0.02,0.486,0.027C184.981,366.686,187.73,361.797,190.749,357.092z"
							/>
					</g>
				</g>
			</g>
			<g>
				<g>
					<g>
						<g>
							<path fill="#9BB4FE" d="M361.395,148.249l4.97,0.514l2.374,0.247l7.95,0.824c1.746,1.94,3.71,3.449,5.825,4.653
								c0.764,0.431,1.55,0.828,2.35,1.186c5.455,2.45,11.684,3.306,17.673,4.435c1.601,0.303,3.186,0.626,4.732,1.004
								c0.023,0.006,0.052,0.012,0.076,0.018c9.485,2.327,20.226,6.003,25.458,14.917c1.726,2.939,2.678,6.25,2.989,9.63
								c0.021,0.212,0.039,0.423,0.052,0.633c0.027,0.402,0.05,0.807,0.064,1.211c0.22,6.236-1.169,12.538-5.374,16.539
								c-0.524,0.506-1.101,0.977-1.725,1.399c-1.363,0.941-2.95,1.677-4.794,2.163c-2.284,0.603-4.626,0.834-6.979,0.788
								c-0.738-0.01-1.479-0.052-2.216-0.119c-6.515-0.583-13.051-3.071-18.782-5.578c-1.494-0.654-2.951-1.378-4.368-2.18
								c-0.675-0.373-1.344-0.769-1.999-1.18c-2.397-1.491-4.679-3.184-6.826-5.041c-0.528-0.458-1.05-0.928-1.56-1.405
								c-2.447-2.282-4.71-4.785-6.761-7.465c-0.619-0.808-1.217-1.631-1.797-2.473C365.641,172.728,361.489,160.33,361.395,148.249
								z"/>
						</g>
						<path fill="#FFFFFF" d="M366.364,148.762l2.374,0.247c1.374,1.908,2.79,3.788,4.192,5.678c0.144-0.085,0.32-0.133,0.532-0.113
							c2.808,0.253,6.125,0.574,9.051-0.087c0.764,0.431,1.55,0.828,2.35,1.186c-3.229,1.292-7.197,1.09-10.614,0.795
							c1.735,2.363,3.437,4.756,5.006,7.244c1.066,1.688,2.276,3.242,3.578,4.697c2.158-3.465,6.798-4.985,10.471-6.116
							c3.027-0.932,6.118-1.609,9.232-2.184c1.601,0.303,3.186,0.626,4.732,1.004c-0.05,0.017-0.102,0.033-0.16,0.042
							c-3.972,0.661-7.938,1.371-11.817,2.446c-3.716,1.027-8.934,2.412-11.051,5.969c-0.041,0.078-0.09,0.135-0.144,0.187
							c3.712,3.816,8.054,7.011,12.197,10.422c2.414,1.985,4.782,4.031,7.155,6.065c4.335-3.83,11.828-3.264,17.11-2.82
							c5.129,0.433,10.163,1.459,15.232,2.255c0.021,0.212,0.039,0.423,0.052,0.633c0.027,0.402,0.05,0.807,0.064,1.211
							c-4.607-0.721-9.185-1.654-13.83-2.131c-5.1-0.527-12.83-1.514-17.229,2.05c1.255,1.064,2.509,2.125,3.78,3.166
							c4.714,3.853,9.584,7.648,14.934,10.579c1.986,1.086,4.473,2.358,6.972,2.875c-0.524,0.506-1.101,0.977-1.725,1.399
							c-2.092-0.629-4.111-1.616-5.843-2.543c-5.189-2.777-9.89-6.286-14.426-10.016c1.015,3.008,2.78,5.889,4.303,8.567
							c1.337,2.349,2.725,4.671,4.193,6.942c-0.738-0.01-1.479-0.052-2.216-0.119c-1.251-1.98-2.451-3.993-3.604-6.022
							c-1.964-3.445-4.232-7.179-5.028-11.115c-0.015-0.078-0.017-0.154-0.016-0.227c-1.035-0.875-2.063-1.758-3.088-2.64
							c-0.074-0.045-0.142-0.104-0.201-0.172c-2.847-2.448-5.686-4.903-8.598-7.236c-0.091-0.072-0.18-0.143-0.267-0.213
							c-1.719,3.336-2.305,7.329-2.601,11.015c-0.227,2.874-0.303,5.951,0.252,8.853c-0.675-0.373-1.344-0.769-1.999-1.18
							c-0.327-2.594-0.265-5.257-0.062-7.804c0.326-4.076,1.042-8.382,2.977-12.037c-1.978-1.59-3.907-3.173-5.756-4.817
							c-1.344,6.536-2.687,13.072-3.985,19.618c-0.528-0.458-1.05-0.928-1.56-1.405c1.307-6.546,2.646-13.087,3.993-19.626
							c-2.852-2.671-5.472-5.555-7.723-8.932c-0.653,3.257-1.486,6.477-2.094,9.746c-0.695,3.758-1.01,7.541-0.938,11.347
							c-0.619-0.808-1.217-1.631-1.797-2.473c0.061-2.795,0.318-5.585,0.809-8.375c0.699-3.963,1.763-7.853,2.485-11.814
							c0.033-0.179,0.108-0.323,0.206-0.442C373.144,157.669,369.619,153.307,366.364,148.762z"/>
					</g>
					<g>
						<g>
							<linearGradient id="SVGID_3_" gradientUnits="userSpaceOnUse" x1="349.4736" y1="153.2622" x2="433.1797" y2="153.2622">
								<stop  offset="0.0233" style="stop-color:#337E75"/>
								<stop  offset="0.3894" style="stop-color:#3F9780"/>
								<stop  offset="0.7413" style="stop-color:#48A988"/>
								<stop  offset="1" style="stop-color:#4BAF8B"/>
							</linearGradient>
							<path fill="url(#SVGID_3_)" d="M349.474,172.697l2.987-4.005l1.43-1.912l4.782-6.403c2.562-0.505,4.861-1.419,6.98-2.618
								c0.761-0.434,1.504-0.906,2.222-1.411c4.898-3.428,8.825-8.337,12.865-12.902c1.081-1.218,2.171-2.416,3.287-3.549
								c0.019-0.017,0.037-0.038,0.055-0.056c6.858-6.954,15.519-14.292,25.856-14.217c3.408,0.024,6.737,0.903,9.802,2.367
								c0.191,0.09,0.381,0.184,0.569,0.281c0.357,0.183,0.718,0.37,1.073,0.565c5.466,3.005,10.166,7.428,11.447,13.088
								c0.166,0.71,0.275,1.446,0.319,2.198c0.108,1.654-0.074,3.395-0.603,5.226c-0.65,2.271-1.652,4.4-2.897,6.396
								c-0.389,0.629-0.803,1.242-1.238,1.841c-3.837,5.296-9.325,9.633-14.416,13.271c-1.326,0.946-2.694,1.826-4.109,2.633
								c-0.665,0.389-1.35,0.76-2.039,1.112c-2.509,1.294-5.131,2.386-7.824,3.278c-0.664,0.218-1.336,0.426-2.006,0.619
								c-3.215,0.932-6.523,1.592-9.876,1.98c-1.011,0.117-2.022,0.208-3.043,0.275C372.67,181.596,359.896,178.807,349.474,172.697
								z"/>
						</g>
						<path fill="#FFFFFF" d="M352.461,168.692l1.43-1.912c2.344-0.201,4.683-0.454,7.025-0.69
							c-0.001-0.167,0.049-0.344,0.175-0.516c1.655-2.28,3.631-4.965,4.563-7.816c0.761-0.434,1.504-0.906,2.222-1.411
							c-0.546,3.436-2.752,6.74-4.757,9.522c2.919-0.279,5.845-0.513,8.785-0.586c1.996-0.051,3.951-0.293,5.868-0.665
							c-1.869-3.63-0.798-8.393,0.112-12.128c0.752-3.076,1.755-6.079,2.856-9.046c1.081-1.218,2.171-2.416,3.287-3.549
							c-0.011,0.052-0.024,0.105-0.047,0.159c-1.466,3.749-2.89,7.519-3.955,11.402c-1.021,3.716-2.506,8.907-0.536,12.548
							c0.045,0.076,0.069,0.147,0.088,0.219c5.178-1.231,10.146-3.323,15.199-5.133c2.94-1.055,5.911-2.04,8.874-3.035
							c-1.066-5.687,3.258-11.83,6.347-16.139c3-4.183,6.461-7.98,9.743-11.926c0.191,0.09,0.381,0.184,0.569,0.281
							c0.357,0.183,0.718,0.37,1.073,0.565c-2.981,3.587-6.128,7.039-8.918,10.783c-3.066,4.108-7.876,10.242-7.069,15.845
							c1.557-0.531,3.11-1.064,4.657-1.623c5.722-2.074,11.478-4.311,16.736-7.404c1.95-1.149,4.315-2.631,6.041-4.513
							c0.166,0.71,0.275,1.446,0.319,2.198c-1.614,1.475-3.496,2.701-5.179,3.713c-5.046,3.035-10.466,5.272-15.994,7.256
							c3.103,0.67,6.482,0.631,9.563,0.696c2.702,0.055,5.406,0.054,8.109-0.043c-0.389,0.629-0.803,1.242-1.238,1.841
							c-2.341,0.06-4.684,0.059-7.02,0.01c-3.964-0.08-8.332-0.045-12.121-1.378c-0.075-0.027-0.141-0.064-0.202-0.103
							c-1.282,0.439-2.566,0.871-3.85,1.298c-0.076,0.04-0.161,0.069-0.25,0.085c-3.563,1.189-7.126,2.368-10.62,3.674
							c-0.108,0.042-0.214,0.081-0.319,0.12c1.983,3.184,5.11,5.734,8.127,7.877c2.35,1.667,4.953,3.309,7.729,4.321
							c-0.665,0.389-1.35,0.76-2.039,1.112c-2.394-1.049-4.648-2.466-6.732-3.947c-3.333-2.369-6.665-5.19-8.812-8.725
							c-2.379,0.884-4.726,1.73-7.085,2.475c4.924,4.502,9.849,9.004,14.805,13.476c-0.664,0.218-1.336,0.426-2.006,0.619
							c-4.952-4.478-9.883-8.979-14.808-13.487c-3.755,1.08-7.574,1.853-11.627,2.055c2.462,2.231,4.799,4.596,7.294,6.792
							c2.873,2.523,5.959,4.73,9.265,6.62c-1.011,0.117-2.022,0.208-3.043,0.275c-2.371-1.484-4.634-3.135-6.777-4.985
							c-3.047-2.631-5.84-5.538-8.873-8.189c-0.137-0.121-0.221-0.259-0.273-0.402C363.585,167.435,358.031,168.227,352.461,168.692
							z"/>
					</g>
				</g>
				<g>
					<g>
						<g>
							<path fill="#9BB4FE" d="M329.839,155.67l2.12-4.524l1.015-2.162l3.394-7.237c2.404-1.011,4.474-2.37,6.308-3.971
								c0.657-0.579,1.292-1.191,1.893-1.831c4.105-4.345,6.963-9.946,9.999-15.231c0.813-1.412,1.639-2.804,2.506-4.139
								c0.012-0.021,0.027-0.045,0.041-0.066c5.315-8.193,12.318-17.126,22.458-19.138c3.343-0.663,6.782-0.473,10.078,0.342
								c0.205,0.051,0.41,0.104,0.614,0.161c0.388,0.106,0.779,0.218,1.165,0.337c5.96,1.842,11.455,5.227,13.852,10.512
								c0.306,0.663,0.561,1.361,0.755,2.089c0.439,1.598,0.612,3.338,0.465,5.24c-0.18,2.354-0.732,4.642-1.55,6.849
								c-0.253,0.694-0.535,1.378-0.841,2.053c-2.691,5.961-7.191,11.315-11.443,15.905c-1.109,1.195-2.271,2.332-3.496,3.408
								c-0.573,0.514-1.168,1.015-1.771,1.5c-2.195,1.773-4.545,3.371-7.004,4.789c-0.605,0.347-1.222,0.687-1.841,1.01
								c-2.96,1.561-6.066,2.875-9.272,3.932c-0.967,0.318-1.939,0.611-2.924,0.883C354.354,159.709,341.279,159.553,329.839,155.67
								z"/>
						</g>
						<path fill="#FFFFFF" d="M331.959,151.146l1.015-2.162c2.253-0.669,4.493-1.388,6.741-2.091
							c-0.035-0.165-0.021-0.347,0.067-0.542c1.162-2.567,2.554-5.594,2.893-8.575c0.657-0.579,1.292-1.191,1.893-1.831
							c0.157,3.476-1.337,7.157-2.739,10.287c2.801-0.862,5.62-1.682,8.485-2.346c1.946-0.453,3.811-1.084,5.613-1.835
							c-2.563-3.178-2.474-8.06-2.334-11.901c0.115-3.165,0.493-6.308,0.974-9.437c0.813-1.412,1.639-2.804,2.506-4.139
							c-0.002,0.051-0.004,0.108-0.016,0.165c-0.681,3.967-1.314,7.947-1.574,11.965c-0.252,3.846-0.661,9.229,2.003,12.399
							c0.061,0.064,0.098,0.13,0.129,0.197c4.823-2.251,9.27-5.301,13.854-8.094c2.667-1.625,5.377-3.189,8.079-4.761
							c-2.19-5.354,0.807-12.245,2.963-17.088c2.095-4.702,4.72-9.118,7.139-13.645c0.205,0.051,0.41,0.104,0.614,0.161
							c0.388,0.106,0.779,0.218,1.165,0.337c-2.196,4.115-4.583,8.13-6.561,12.36c-2.174,4.641-5.648,11.62-3.729,16.944
							c1.418-0.834,2.831-1.67,4.234-2.528c5.187-3.185,10.371-6.537,14.898-10.626c1.68-1.519,3.697-3.448,5.009-5.639
							c0.306,0.663,0.561,1.361,0.755,2.089c-1.283,1.769-2.878,3.35-4.323,4.681c-4.33,3.99-9.188,7.273-14.202,10.331
							c3.173,0.031,6.476-0.689,9.505-1.247c2.659-0.49,5.309-1.037,7.936-1.676c-0.253,0.694-0.535,1.378-0.841,2.053
							c-2.28,0.53-4.577,1.002-6.874,1.425c-3.897,0.721-8.17,1.635-12.149,1.094c-0.078-0.012-0.152-0.035-0.219-0.06
							c-1.167,0.688-2.339,1.37-3.509,2.048c-0.067,0.055-0.144,0.1-0.228,0.134c-3.25,1.883-6.501,3.756-9.662,5.739
							c-0.096,0.063-0.193,0.123-0.29,0.182c2.588,2.72,6.165,4.586,9.55,6.077c2.639,1.159,5.52,2.242,8.441,2.674
							c-0.573,0.514-1.168,1.015-1.771,1.5c-2.557-0.544-5.051-1.479-7.392-2.508c-3.742-1.649-7.572-3.74-10.388-6.77
							c-2.152,1.346-4.279,2.648-6.441,3.853c5.73,3.417,11.461,6.834,17.217,10.214c-0.605,0.347-1.222,0.687-1.841,1.01
							c-5.751-3.387-11.488-6.801-17.221-10.224c-3.46,1.814-7.045,3.342-10.974,4.356c2.86,1.689,5.627,3.535,8.514,5.183
							c3.32,1.893,6.79,3.432,10.408,4.617c-0.967,0.318-1.939,0.611-2.924,0.883c-2.623-0.977-5.173-2.136-7.645-3.516
							c-3.514-1.963-6.837-4.247-10.341-6.232c-0.159-0.09-0.27-0.208-0.35-0.339C342.599,147.671,337.32,149.566,331.959,151.146z"
							/>
					</g>
					<g>
						<g>
							<linearGradient id="SVGID_4_" gradientUnits="userSpaceOnUse" x1="323.1299" y1="130.502" x2="370.5322" y2="130.502">
								<stop  offset="0.0233" style="stop-color:#DB4D61"/>
								<stop  offset="0.2942" style="stop-color:#DE5D6F"/>
								<stop  offset="0.7006" style="stop-color:#E26E7E"/>
								<stop  offset="1" style="stop-color:#E37483"/>
							</linearGradient>
							<path fill="url(#SVGID_4_)" d="M349.009,174.967l-2.798-4.139l-1.338-1.978l-4.476-6.622
								c0.365-2.584,0.259-5.058-0.176-7.453c-0.161-0.862-0.362-1.719-0.604-2.563c-1.625-5.753-4.971-11.077-7.954-16.393
								c-0.795-1.421-1.567-2.843-2.27-4.272c-0.011-0.021-0.024-0.047-0.034-0.069c-4.313-8.764-8.395-19.355-4.927-29.093
								c1.144-3.211,3.068-6.066,5.458-8.478c0.148-0.151,0.299-0.301,0.452-0.446c0.291-0.278,0.586-0.556,0.888-0.827
								c4.636-4.175,10.358-7.159,16.125-6.508c0.727,0.078,1.457,0.216,2.182,0.423c1.597,0.441,3.18,1.185,4.737,2.286
								c1.93,1.362,3.611,3.007,5.087,4.841c0.467,0.572,0.909,1.166,1.333,1.773c3.738,5.367,6.031,11.975,7.793,17.978
								c0.458,1.564,0.838,3.146,1.135,4.748c0.148,0.756,0.274,1.523,0.38,2.29c0.398,2.795,0.566,5.63,0.523,8.469
								c-0.013,0.699-0.037,1.401-0.075,2.099c-0.176,3.341-0.641,6.682-1.377,9.976c-0.221,0.993-0.468,1.979-0.739,2.965
								C365.041,155.986,358.207,167.132,349.009,174.967z"/>
						</g>
						<path fill="#FFFFFF" d="M346.211,170.828l-1.338-1.978c0.58-2.278,1.111-4.571,1.659-6.861
							c-0.158-0.054-0.309-0.159-0.431-0.335c-1.609-2.314-3.494-5.062-5.88-6.879c-0.161-0.862-0.362-1.719-0.604-2.563
							c3.067,1.646,5.462,4.815,7.431,7.623c0.696-2.848,1.436-5.688,2.336-8.489c0.607-1.901,1.021-3.826,1.3-5.759
							c-4.042,0.572-8.188-2.006-11.415-4.096c-2.659-1.72-5.164-3.654-7.605-5.671c-0.795-1.421-1.567-2.843-2.27-4.272
							c0.045,0.027,0.091,0.059,0.135,0.097c3.058,2.618,6.149,5.202,9.466,7.484c3.174,2.187,7.589,5.296,11.675,4.633
							c0.086-0.018,0.161-0.017,0.234-0.011c0.54-5.294,0.198-10.675,0.149-16.043c-0.029-3.124,0.019-6.252,0.053-9.378
							c-5.722-0.862-10.103-6.967-13.155-11.3c-2.964-4.208-5.41-8.726-8.06-13.122c0.148-0.151,0.299-0.301,0.452-0.446
							c0.291-0.278,0.586-0.556,0.888-0.827c2.407,3.994,4.633,8.1,7.251,11.968c2.873,4.245,7.084,10.804,12.641,11.884
							c0.01-1.645,0.018-3.287-0.003-4.931c-0.076-6.086-0.296-12.258-1.487-18.24c-0.444-2.22-1.066-4.942-2.276-7.19
							c0.727,0.078,1.457,0.216,2.182,0.423c0.861,2.008,1.401,4.189,1.804,6.11c1.207,5.764,1.536,11.617,1.594,17.491
							c1.652-2.71,2.727-5.915,3.801-8.802c0.941-2.534,1.828-5.088,2.626-7.672c0.467,0.572,0.909,1.166,1.333,1.773
							c-0.714,2.231-1.486,4.444-2.3,6.632c-1.379,3.717-2.782,7.854-5.287,10.995c-0.05,0.061-0.107,0.113-0.163,0.158
							c-0.007,1.354-0.022,2.709-0.04,4.061c0.013,0.085,0.013,0.175-0.003,0.265c-0.047,3.755-0.104,7.508-0.022,11.238
							c0.006,0.116,0.008,0.228,0.01,0.34c3.659-0.827,7.097-2.941,10.11-5.085c2.349-1.671,4.755-3.59,6.623-5.879
							c0.148,0.756,0.274,1.523,0.38,2.29c-1.777,1.917-3.858,3.58-5.941,5.062c-3.333,2.368-7.092,4.586-11.137,5.452
							c0.054,2.538,0.081,5.033,0.009,7.505c5.871-3.169,11.742-6.34,17.593-9.55c-0.013,0.699-0.037,1.401-0.075,2.099
							c-5.857,3.204-11.729,6.379-17.604,9.549c-0.216,3.899-0.74,7.762-1.884,11.656c2.917-1.59,5.92-3.021,8.814-4.656
							c3.327-1.882,6.428-4.072,9.297-6.573c-0.221,0.993-0.468,1.979-0.739,2.965c-2.183,1.751-4.484,3.347-6.938,4.762
							c-3.487,2.011-7.15,3.695-10.65,5.686c-0.158,0.09-0.317,0.125-0.47,0.126C348.68,159.91,347.602,165.415,346.211,170.828z"/>
					</g>
				</g>
			</g>
		</g>
		<g>
			<g>
				<g opacity="0.05">
					<rect x="142.535" y="88.628" width="234.782" height="321.683"/>
				</g>
				<g>
					<rect x="139.535" y="85.628" fill="#FFFFFF" width="234.782" height="321.683"/>
				</g>
			</g>
			<g>
				<g>
					<path fill="#4546CF" d="M213.599,233.045h-51.739v-51.739h51.739V233.045z M165.242,229.664h44.975v-44.975h-44.975V229.664z"
						/>
				</g>
				<linearGradient id="SVGID_5_" gradientUnits="userSpaceOnUse" x1="169.0273" y1="207.7563" x2="205.6064" y2="207.7563">
					<stop  offset="0.0233" style="stop-color:#DB4D61"/>
					<stop  offset="0.2942" style="stop-color:#DE5D6F"/>
					<stop  offset="0.7006" style="stop-color:#E26E7E"/>
					<stop  offset="1" style="stop-color:#E37483"/>
				</linearGradient>
				<path fill="url(#SVGID_5_)" d="M190.833,207.756l14.108-14.11c0.887-0.886,0.887-2.336,0-3.223l-0.292-0.292
					c-0.886-0.887-2.337-0.887-3.224,0l-14.108,14.11l-14.11-14.11c-0.887-0.887-2.337-0.887-3.223,0l-0.293,0.292
					c-0.886,0.886-0.886,2.337,0,3.223l14.109,14.11l-14.109,14.111c-0.886,0.886-0.886,2.336,0,3.223l0.293,0.292
					c0.886,0.886,2.336,0.886,3.223,0l14.11-14.11l14.108,14.11c0.887,0.886,2.338,0.886,3.224,0l0.292-0.292
					c0.887-0.887,0.887-2.337,0-3.223L190.833,207.756z"/>
			</g>
			<g>
				<g>
					<path fill="#715BD2" d="M213.599,167.104h-51.739v-51.738h51.739V167.104z M165.242,163.721h44.975v-44.973h-44.975V163.721z"
						/>
				</g>
				<g>
					<linearGradient id="SVGID_6_" gradientUnits="userSpaceOnUse" x1="167.9209" y1="141.2349" x2="222.3057" y2="141.2349">
						<stop  offset="0.0233" style="stop-color:#337E75"/>
						<stop  offset="0.3894" style="stop-color:#3F9780"/>
						<stop  offset="0.7413" style="stop-color:#48A988"/>
						<stop  offset="1" style="stop-color:#4BAF8B"/>
					</linearGradient>
					<path fill="url(#SVGID_6_)" d="M182.608,162.38c-0.064,0-0.128-0.002-0.192-0.007c-0.752-0.056-1.443-0.437-1.891-1.044
						l-12.096-16.352c-0.852-1.15-0.608-2.773,0.544-3.625c1.149-0.85,2.773-0.608,3.624,0.542l10.305,13.933l34.979-34.979
						c1.014-1.012,2.654-1.012,3.665,0c1.013,1.012,1.013,2.653,0.002,3.665l-37.106,37.107
						C183.953,162.109,183.294,162.38,182.608,162.38z"/>
				</g>
			</g>
			<g>
				<rect x="160.038" y="380.573" fill="#715BD2" width="188.938" height="2.568"/>
				<g>
					<rect x="228.243" y="340.358" fill="#9BB4FE" width="11.98" height="40.172"/>
					<linearGradient id="SVGID_7_" gradientUnits="userSpaceOnUse" x1="257.4707" y1="399.0269" x2="257.4707" y2="343.3081">
						<stop  offset="0.0233" style="stop-color:#337E75"/>
						<stop  offset="0.3894" style="stop-color:#3F9780"/>
						<stop  offset="0.7413" style="stop-color:#48A988"/>
						<stop  offset="1" style="stop-color:#4BAF8B"/>
					</linearGradient>
					<rect x="250.178" y="318.678" fill="url(#SVGID_7_)" width="14.586" height="61.852"/>
					<rect x="270.774" y="365.769" fill="#9BB4FE" width="12.143" height="14.761"/>
				</g>
				<g>
					<g>
						<linearGradient id="SVGID_8_" gradientUnits="userSpaceOnUse" x1="170.8057" y1="399.0259" x2="170.8057" y2="343.308">
							<stop  offset="0.0233" style="stop-color:#337E75"/>
							<stop  offset="0.3894" style="stop-color:#3F9780"/>
							<stop  offset="0.7413" style="stop-color:#48A988"/>
							<stop  offset="1" style="stop-color:#4BAF8B"/>
						</linearGradient>
						<rect x="164.815" y="335.053" fill="url(#SVGID_8_)" width="11.98" height="45.477"/>
						<rect x="183.882" y="347.541" fill="#9BB4FE" width="12.141" height="32.989"/>
						<linearGradient id="SVGID_9_" gradientUnits="userSpaceOnUse" x1="210.1992" y1="399.0269" x2="210.1992" y2="343.308">
							<stop  offset="0.0233" style="stop-color:#337E75"/>
							<stop  offset="0.3894" style="stop-color:#3F9780"/>
							<stop  offset="0.7413" style="stop-color:#48A988"/>
							<stop  offset="1" style="stop-color:#4BAF8B"/>
						</linearGradient>
						<rect x="204.129" y="354.789" fill="url(#SVGID_9_)" width="12.142" height="25.741"/>
					</g>
				</g>
				<g>
					<g>
						<linearGradient id="SVGID_10_" gradientUnits="userSpaceOnUse" x1="297.4414" y1="399.0269" x2="297.4414" y2="343.307">
							<stop  offset="0.0233" style="stop-color:#337E75"/>
							<stop  offset="0.3894" style="stop-color:#3F9780"/>
							<stop  offset="0.7413" style="stop-color:#48A988"/>
							<stop  offset="1" style="stop-color:#4BAF8B"/>
						</linearGradient>
						<rect x="291.45" y="347.541" fill="url(#SVGID_10_)" width="11.981" height="32.989"/>
						<rect x="312.057" y="329.048" fill="#9BB4FE" width="12.141" height="51.481"/>
						<linearGradient id="SVGID_11_" gradientUnits="userSpaceOnUse" x1="336.7559" y1="399.0269" x2="336.7559" y2="343.308">
							<stop  offset="0.0233" style="stop-color:#337E75"/>
							<stop  offset="0.3894" style="stop-color:#3F9780"/>
							<stop  offset="0.7413" style="stop-color:#48A988"/>
							<stop  offset="1" style="stop-color:#4BAF8B"/>
						</linearGradient>
						<rect x="330.685" y="354.789" fill="url(#SVGID_11_)" width="12.142" height="25.741"/>
					</g>
				</g>
			</g>
			<g>
				<path fill="#715BD2" d="M335.025,193.297H230.65c-1.222,0-2.219-0.999-2.219-2.218l0,0c0-1.221,0.997-2.218,2.219-2.218h104.375
					c1.221,0,2.219,0.998,2.219,2.218l0,0C337.244,192.299,336.246,193.297,335.025,193.297z"/>
				<g>
					<path fill="#9BB4FE" d="M325.461,203.608H230.65c-1.222,0-2.219-0.998-2.219-2.219l0,0c0-1.22,0.997-2.218,2.219-2.218h94.811
						c1.221,0,2.219,0.998,2.219,2.218l0,0C327.68,202.61,326.682,203.608,325.461,203.608z"/>
					<path fill="#9BB4FE" d="M325.461,225.491H230.65c-1.222,0-2.219-0.999-2.219-2.219l0,0c0-1.22,0.997-2.219,2.219-2.219h94.811
						c1.221,0,2.219,0.999,2.219,2.219l0,0C327.68,224.493,326.682,225.491,325.461,225.491z"/>
					<g>
						<path fill="#9BB4FE" d="M286.015,214.479H230.65c-1.222,0-2.219-0.999-2.219-2.219l0,0c0-1.22,0.997-2.218,2.219-2.218h55.364
							c1.22,0,2.218,0.999,2.218,2.218l0,0C288.232,213.481,287.234,214.479,286.015,214.479z"/>
						<path fill="#9BB4FE" d="M351.605,214.479h-55.363c-1.22,0-2.22-0.999-2.22-2.219l0,0c0-1.22,1-2.218,2.22-2.218h55.363
							c1.221,0,2.219,0.999,2.219,2.218l0,0C353.824,213.481,352.826,214.479,351.605,214.479z"/>
					</g>
				</g>
			</g>
			<g>
				<g>
					<path fill="#715BD2" d="M213.599,302.037h-51.739v-51.738h51.739V302.037z M165.242,298.654h44.975V253.68h-44.975V298.654z"/>
				</g>
			</g>
			<g>
				<path fill="#715BD2" d="M335.025,262.29H230.65c-1.222,0-2.219-1-2.219-2.218l0,0c0-1.222,0.997-2.219,2.219-2.219h104.375
					c1.221,0,2.219,0.997,2.219,2.219l0,0C337.244,261.29,336.246,262.29,335.025,262.29z"/>
				<g>
					<path fill="#9BB4FE" d="M325.461,272.6H230.65c-1.222,0-2.219-0.998-2.219-2.219l0,0c0-1.22,0.997-2.219,2.219-2.219h94.811
						c1.221,0,2.219,0.999,2.219,2.219l0,0C327.68,271.602,326.682,272.6,325.461,272.6z"/>
					<path fill="#9BB4FE" d="M325.461,294.483H230.65c-1.222,0-2.219-0.998-2.219-2.219l0,0c0-1.22,0.997-2.219,2.219-2.219h94.811
						c1.221,0,2.219,0.999,2.219,2.219l0,0C327.68,293.485,326.682,294.483,325.461,294.483z"/>
					<g>
						<path fill="#9BB4FE" d="M286.015,283.47H230.65c-1.222,0-2.219-0.998-2.219-2.219l0,0c0-1.218,0.997-2.218,2.219-2.218h55.364
							c1.22,0,2.218,1,2.218,2.218l0,0C288.232,282.472,287.234,283.47,286.015,283.47z"/>
						<path fill="#9BB4FE" d="M351.605,283.47h-55.363c-1.22,0-2.22-0.998-2.22-2.219l0,0c0-1.218,1-2.218,2.22-2.218h55.363
							c1.221,0,2.219,1,2.219,2.218l0,0C353.824,282.472,352.826,283.47,351.605,283.47z"/>
					</g>
				</g>
			</g>
			<g>
				<path fill="#715BD2" d="M335.025,127.356H230.65c-1.222,0-2.219-0.999-2.219-2.219l0,0c0-1.22,0.997-2.218,2.219-2.218h104.375
					c1.221,0,2.219,0.999,2.219,2.218l0,0C337.244,126.357,336.246,127.356,335.025,127.356z"/>
				<g>
					<path fill="#9BB4FE" d="M325.461,137.667H230.65c-1.222,0-2.219-0.998-2.219-2.218l0,0c0-1.22,0.997-2.218,2.219-2.218h94.811
						c1.221,0,2.219,0.999,2.219,2.218l0,0C327.68,136.668,326.682,137.667,325.461,137.667z"/>
					<path fill="#9BB4FE" d="M325.461,159.55H230.65c-1.222,0-2.219-0.999-2.219-2.218l0,0c0-1.22,0.997-2.219,2.219-2.219h94.811
						c1.221,0,2.219,0.999,2.219,2.219l0,0C327.68,158.551,326.682,159.55,325.461,159.55z"/>
					<g>
						<path fill="#9BB4FE" d="M286.015,148.538H230.65c-1.222,0-2.219-0.999-2.219-2.218l0,0c0-1.221,0.997-2.218,2.219-2.218
							h55.364c1.22,0,2.218,0.998,2.218,2.218l0,0C288.232,147.54,287.234,148.538,286.015,148.538z"/>
						<path fill="#9BB4FE" d="M351.605,148.538h-55.363c-1.22,0-2.22-0.999-2.22-2.218l0,0c0-1.221,1-2.218,2.22-2.218h55.363
							c1.221,0,2.219,0.998,2.219,2.218l0,0C353.824,147.54,352.826,148.538,351.605,148.538z"/>
					</g>
				</g>
			</g>
		</g>
		<g>
			<g>
				<g>
					<path fill="#715BD2" d="M215.214,8.567c0.535-1.171,0.931-2.226,1.964-3.062c0.942-0.765,2.056-1.386,2.926-2.225
						c-1.895,2.111-1.828,4.586-1.029,7.093c2.438,7.656,6.657,12.266,8.681,13.481c-1.205,0.62-4.07-0.025-5.351-0.237
						c0,0,0.934,2.401,2.472,3.552c-6.467,0.033-8.634-2.949-9.39-4.36C213.296,18.728,213.309,12.734,215.214,8.567z"/>
				</g>
			</g>
			<path fill="#E7B3B7" d="M208.533,23.503l0.75-1.133c0,0,0,0,0,0l0,0l3.137-4.734l5.702,2.623
				c-1.792,2.227-3.652,4.082-3.742,6.37l4.241,6.418l-6.137,2.48l-7.081-8.758C206.584,25.609,207.769,24.444,208.533,23.503z"/>
			<linearGradient id="SVGID_12_" gradientUnits="userSpaceOnUse" x1="188.5059" y1="65.5059" x2="245.0862" y2="87.1841">
				<stop  offset="0.0253" style="stop-color:#715BD2"/>
				<stop  offset="0.1843" style="stop-color:#6C57CB"/>
				<stop  offset="0.4084" style="stop-color:#5E4DB9"/>
				<stop  offset="0.6712" style="stop-color:#463C9B"/>
				<stop  offset="0.9614" style="stop-color:#262571"/>
				<stop  offset="1" style="stop-color:#21226B"/>
			</linearGradient>
			<path fill="url(#SVGID_12_)" d="M196.484,60.212c-1.07,8.208-4.643,14.895,4.494,25.03l18.561-15.915
				c-2.087-2.76-3.86-5.574-4.622-8.661L196.484,60.212z"/>
			<linearGradient id="SVGID_13_" gradientUnits="userSpaceOnUse" x1="186.708" y1="36.2285" x2="231.1549" y2="52.1358">
				<stop  offset="0.0233" style="stop-color:#337E75"/>
				<stop  offset="0.3894" style="stop-color:#3F9780"/>
				<stop  offset="0.7413" style="stop-color:#48A988"/>
				<stop  offset="1" style="stop-color:#4BAF8B"/>
			</linearGradient>
			<path fill="url(#SVGID_13_)" d="M218.621,33.048c-2.764,0.814-5.71-0.485-6.973-3.074l-3.137-6.426
				c-5.21,2.859-6.323,8.834-6.76,15.256c-1.113,16.363-3.803,14.469-5.268,21.409l18.433,0.454
				c-0.343-1.296-0.49-2.632-0.395-4.037c0.085-1.584,0.453-3.222,1.2-4.97l3.021-4.731
				C221.454,42.684,221.407,37.249,218.621,33.048z"/>
			<linearGradient id="SVGID_14_" gradientUnits="userSpaceOnUse" x1="191.3574" y1="58.063" x2="247.9362" y2="79.7407">
				<stop  offset="0.0253" style="stop-color:#715BD2"/>
				<stop  offset="0.1843" style="stop-color:#6C57CB"/>
				<stop  offset="0.4084" style="stop-color:#5E4DB9"/>
				<stop  offset="0.6712" style="stop-color:#463C9B"/>
				<stop  offset="0.9614" style="stop-color:#262571"/>
				<stop  offset="1" style="stop-color:#21226B"/>
			</linearGradient>
			<path fill="url(#SVGID_14_)" d="M199.6,83.223c1.201,2.904,4.297,4.297,8.993,4.413c1.228,0.03,2.443-0.044,3.628-0.195l0.016,0
				c3.259-0.443,6.431-1.548,9.3-3.199l13.621-7.792l5.633-3.215l2.081-1.191c1.653-0.947,3.536-1.426,5.378-1.425
				c1.991,0.005,3.999,0.563,5.737,1.669c3.817,2.399,5.758,6.923,4.825,11.361l-1.322,6.285l0.025,0.121l13.05,16.668l0.13,0.168
				c-0.019,0.119-0.021,0.224-0.023,0.329c-0.532,5.87,4.481,4.707,15.388,1.921c1.551-0.38,2.211-2.295-0.613-2.455l-11.369-0.983
				l-0.043-0.076l-0.07-0.182l-16.044-40.229c-3.16-7.878-11.868-12.299-19.899-9.548l-2.281,0.857l-9.098,3.429l-0.015,0.014
				l-16.849,5.768c-5.647,1.927-9.914,6.822-10.629,12.748C198.908,80.361,199.064,81.938,199.6,83.223z"/>
			<linearGradient id="SVGID_15_" gradientUnits="userSpaceOnUse" x1="215.3574" y1="89.5854" x2="258.2784" y2="109.5285">
				<stop  offset="0" style="stop-color:#21226B"/>
				<stop  offset="0.0386" style="stop-color:#262571"/>
				<stop  offset="0.3288" style="stop-color:#463C9B"/>
				<stop  offset="0.5916" style="stop-color:#5E4DB9"/>
				<stop  offset="0.8157" style="stop-color:#6C57CB"/>
				<stop  offset="0.9747" style="stop-color:#715BD2"/>
			</linearGradient>
			<path fill="url(#SVGID_15_)" d="M239.434,86.958l6.694-0.119c-6.694,0.119-1.038,24.54-1.282,45.956l0.014,0.12
				c-0.047,0.044-0.078,0.104-0.124,0.146c-3.827,4.681,0.993,6.462,11.68,10.213c1.513,0.516,3.129-0.671,0.851-2.375l-8.939-7.121
				l0.016-0.089l9.147-43.756l1.322-6.285c0.933-4.438-1.008-8.962-4.825-11.361c-1.738-1.105-3.746-1.664-5.737-1.669
				c-1.842,0-3.725,0.478-5.378,1.425l-2.081,1.191l-5.699,2.824l-22.854,11.383L239.434,86.958z"/>
			<path fill="#7C8CC7" d="M226.41,56.138l1.229,3.379l23.629-8.5c0,0,4.315-26.535,4.044-26.542
				c-0.271-0.006-3.454-0.085-3.454-0.085l-4.313,23.688L226.41,56.138z"/>
			<g>
				<g>
					<path fill="#EDC6C9" d="M211.167,12.659c-0.243,1.331-0.013,9.688,6.763,11.105c3.162,0.661,6.308-1.875,7.918-4.809
						c0.026,0.019,0.056,0.033,0.091,0.036c0.394,0.041,0.934,0.055,1.071-0.293c0.125-0.315-0.203-0.737-0.554-1.074
						c0.161-0.442,0.297-0.895,0.387-1.354c2.104-10.613-0.858-13.614-5.002-14.212C213.32,0.831,211.479,10.951,211.167,12.659z"/>
					<g>
						<path fill="#4546CF" d="M222.598,18.972c-0.539-0.667-0.949-1.658-0.511-2.996c0.037-0.11,0.155-0.17,0.267-0.134
							c0.109,0.035,0.169,0.155,0.133,0.266c-0.783,2.39,1.48,3.487,1.578,3.533c0.105,0.049,0.148,0.174,0.101,0.279
							c-0.049,0.104-0.174,0.149-0.278,0.101C223.873,20.014,223.163,19.673,222.598,18.972z"/>
					</g>
					<g>
						
							<ellipse transform="matrix(-0.9525 -0.3047 0.3047 -0.9525 434.8943 98.3121)" fill="#4546CF" cx="225.118" cy="15.225" rx="0.673" ry="0.778"/>
					</g>
					<g>
						<path fill="#4546CF" d="M223.963,12.613c-0.007-0.005-0.012-0.01-0.017-0.017c-0.083-0.082-0.083-0.214,0-0.296
							c0.981-0.975,2.029-0.511,2.454-0.134c0.087,0.078,0.093,0.209,0.015,0.296c-0.077,0.086-0.199,0.1-0.296,0.016
							c-0.028-0.027-0.935-0.816-1.876,0.12C224.166,12.675,224.046,12.68,223.963,12.613z"/>
					</g>
				</g>
			</g>
			<linearGradient id="SVGID_16_" gradientUnits="userSpaceOnUse" x1="270.6328" y1="108.438" x2="287.3926" y2="108.438">
				<stop  offset="0.0117" style="stop-color:#7C8CC7"/>
				<stop  offset="0.2554" style="stop-color:#8091CE"/>
				<stop  offset="0.5989" style="stop-color:#8A9EE0"/>
				<stop  offset="1" style="stop-color:#9BB4FE"/>
			</linearGradient>
			<path fill="url(#SVGID_16_)" d="M286.059,109.14c1.551-0.38,2.211-2.295-0.613-2.455l-11.369-0.983l-0.043-0.076l-0.07-0.182
				l-3.292,1.775C270.139,113.089,275.152,111.926,286.059,109.14z"/>
			<linearGradient id="SVGID_17_" gradientUnits="userSpaceOnUse" x1="243.4336" y1="138.2295" x2="258.3984" y2="138.2295">
				<stop  offset="0.0117" style="stop-color:#7C8CC7"/>
				<stop  offset="0.2554" style="stop-color:#8091CE"/>
				<stop  offset="0.5989" style="stop-color:#8A9EE0"/>
				<stop  offset="1" style="stop-color:#9BB4FE"/>
			</linearGradient>
			<path fill="url(#SVGID_17_)" d="M256.415,143.275c1.513,0.516,3.129-0.671,0.851-2.375l-8.939-7.121l0.016-0.089l-3.606-0.628
				C240.908,137.743,245.729,139.524,256.415,143.275z"/>
			<g>
				<g>
					<path fill="#21226B" d="M209.768,17.315c0.603,0.547,1.544,1.221,2.357,1.389c0.926,0.196,1.404-0.562,1.698-1.459
						c0.183-0.59,0.154-1.277,0.212-1.923c-0.619-0.463-1.04-1.459-1.04-2.625c0-1.6,0.786-2.892,1.782-2.892
						c0.842,0,1.559,0.955,1.728,2.246c0.253-0.449,0.617-0.87,1.179-1.263c1.08-0.744,2.92-2.035,4.28-1.586
						c-0.674,0-0.588,1.024-0.771,1.445c3.326-1.853,7.732,2.835,8.729-2.512c0.521-2.723-3.873-6.289-6.091-7.131
						c-3.06-1.179-6.203-1.362-9.32-0.323c-3.368,1.137-5.208,3.762-6.541,6.934C206.665,10.717,207.171,14.998,209.768,17.315z"/>
				</g>
			</g>
			<g>
				<g>
					<path fill="#21226B" d="M208.938,4.945c0.857-0.9,1.554-1.739,2.759-2.176c1.102-0.4,2.314-0.618,3.375-1.108
						c-2.397,1.33-3.116,3.61-3.178,6.151c-0.19,7.757,2.209,13.297,3.671,15.044c-1.294,0.187-3.707-1.306-4.809-1.902
						c0,0,0.095,2.486,1.138,4.021c-5.916-2.009-6.954-5.414-7.2-6.943C203.984,13.618,205.886,8.149,208.938,4.945z"/>
				</g>
			</g>
			<path fill="#EDC6C9" d="M201.199,33.597c1.925-4.009,3.109-10.189,6.35-10.078c3.231,0.11,5.436,2.151,4.697,4.592
				c-0.387,1.275-2.329,6.424-4.933,11.854c-3.55,7.367-5.521,11.089-5.521,11.089l32.922-1.028
				c5.481-4.97,10.101-5.32,11.561-1.362l-9.974,3.797c0,0-39.151,11.116-40.851,4.088
				C194.189,51.332,200.836,34.367,201.199,33.597z"/>
		</g>
		<g>
			<ellipse fill="#006E92" cx="426.73" cy="425.392" rx="50.29" ry="5.251"/>
			<g>
				<g>
					<path fill="#EDC6C9" d="M414.682,279.209l-8.902-9.626c-10.213,6.218-23.468,9.64-36.915,11.25l0.277,1.102l-0.277-1.096
						c-2.175-0.654-3.805-0.89-5.025-0.883c-1.603,0.008-1.935,2.268-0.41,2.757l1.819,0.826l-2.046,0.53
						c-1.632,0.287-2.878,0.753-3.828,1.282c-2.647,1.477-1.77,5.641,1.259,5.817c4.629,0.268,9.652-4.708,9.652-4.708v-0.001
						C385.503,286.369,402.854,285.039,414.682,279.209z"/>
					<linearGradient id="SVGID_18_" gradientUnits="userSpaceOnUse" x1="405.7793" y1="269.3013" x2="426.7305" y2="269.3013">
						<stop  offset="0.0233" style="stop-color:#DB4D61"/>
						<stop  offset="0.2942" style="stop-color:#DE5D6F"/>
						<stop  offset="0.7006" style="stop-color:#E26E7E"/>
						<stop  offset="1" style="stop-color:#E37483"/>
					</linearGradient>
					<path fill="url(#SVGID_18_)" d="M426.72,265.35c0.068,1.149-0.188,2.347-0.819,3.466c-1.201,2.107-2.709,4.034-4.432,5.703
						c-1.738,1.685-3.718,3.113-5.873,4.237c-0.305,0.16-0.609,0.307-0.914,0.453l-8.902-9.626c3.779-2.29,7.14-4.967,9.944-8.081
						c1.362-1.52,3.368-2.294,5.389-2.072C424.34,259.795,426.546,262.426,426.72,265.35z"/>
				</g>
				<g>
					<polygon fill="#EDC6C9" points="306.493,354.508 316.48,351.355 326.452,348.203 308.366,333.662 307.437,344.068 					"/>
					<linearGradient id="SVGID_19_" gradientUnits="userSpaceOnUse" x1="306.4932" y1="349.2876" x2="316.4805" y2="349.2876">
						<stop  offset="0.0233" style="stop-color:#337E75"/>
						<stop  offset="0.3894" style="stop-color:#3F9780"/>
						<stop  offset="0.7413" style="stop-color:#48A988"/>
						<stop  offset="1" style="stop-color:#4BAF8B"/>
					</linearGradient>
					<path fill="url(#SVGID_19_)" d="M306.493,354.508l9.987-3.153c-2.787-2.257-6.352-5.122-9.044-7.287L306.493,354.508z"/>
					<g>
						<linearGradient id="SVGID_20_" gradientUnits="userSpaceOnUse" x1="388.5527" y1="308.0024" x2="351.5934" y2="271.0431">
							<stop  offset="0.0117" style="stop-color:#7C8CC7"/>
							<stop  offset="0.2554" style="stop-color:#8091CE"/>
							<stop  offset="0.5989" style="stop-color:#8A9EE0"/>
							<stop  offset="1" style="stop-color:#9BB4FE"/>
						</linearGradient>
						<polygon fill="url(#SVGID_20_)" points="308.366,333.662 326.452,348.203 419.219,232.824 401.136,218.283 						"/>
						
							<rect x="400.309" y="220.63" transform="matrix(-0.7793 -0.6266 0.6266 -0.7793 592.9265 655.6117)" fill="#715BD2" width="23.204" height="5.534"/>
						<linearGradient id="SVGID_21_" gradientUnits="userSpaceOnUse" x1="404.6025" y1="215.5317" x2="431.0313" y2="215.5317">
							<stop  offset="0.0233" style="stop-color:#337E75"/>
							<stop  offset="0.3894" style="stop-color:#3F9780"/>
							<stop  offset="0.7413" style="stop-color:#48A988"/>
							<stop  offset="1" style="stop-color:#4BAF8B"/>
						</linearGradient>
						<path fill="url(#SVGID_21_)" d="M404.603,213.971l18.083,14.54l0.172-0.213c0.898-1.116,3.234-4.039,5.66-7.075
							c3.893-4.874,3.188-11.964-1.588-15.975l0,0c-4.819-4.048-12.003-3.471-16.103,1.304c-2.262,2.633-4.544,5.328-6.054,7.207
							L404.603,213.971z"/>
					</g>
				</g>
				<g>
					<path fill="#E7B3B7" d="M422.607,249.774c0,0,0.862,6.893,0.653,12.738c-0.097,2.751-7.503,4.81-7.77,4.658
						c-0.318-0.182-0.528-0.549-0.434-0.97c0.615-2.791,1.32-7.806-0.249-11.992L422.607,249.774z"/>
					<g>
						<path fill="#EDC6C9" d="M426.747,247.178c-0.031-4.702-2.301-10.416-5.527-11.398c-4.224-1.283-8.43-0.038-11.447,10.963
							c-0.131,0.479-0.063,0.304-0.119,0.796c-0.488,0.153-0.997,0.396-1.027,0.752c-0.034,0.394,0.482,0.635,0.873,0.783
							c0.033,0.012,0.067,0.012,0.102,0.007c0.138,3.527,1.92,7.743,5.078,9.014c3.057,1.23,7.483-1.397,9.989-4.627
							C426.155,253.364,427.238,247.012,426.747,247.178z"/>
						<g>
							<path fill="#4546CF" d="M412.536,251.375c0.821-0.375,1.675-1.117,1.893-2.586c0.019-0.12-0.066-0.232-0.188-0.25
								c-0.118-0.019-0.232,0.063-0.251,0.187c-0.386,2.622-3.04,2.59-3.153,2.588c-0.122-0.003-0.223,0.095-0.226,0.217
								c-0.003,0.121,0.093,0.224,0.215,0.227C410.842,251.758,411.671,251.77,412.536,251.375z"/>
						</g>
						<g>
							
								<ellipse transform="matrix(0.9881 0.1536 -0.1536 0.9881 42.7908 -60.3593)" fill="#4546CF" cx="411.921" cy="246.677" rx="0.648" ry="0.656"/>
						</g>
						<g>
							<path fill="#4546CF" d="M414.244,244.734c0.008-0.001,0.017-0.003,0.023-0.007c0.116-0.038,0.18-0.163,0.139-0.279
								c-0.464-1.382-1.672-1.439-2.252-1.283c-0.116,0.032-0.184,0.154-0.152,0.271c0.032,0.118,0.141,0.188,0.272,0.154
								c0.039-0.011,1.265-0.327,1.713,0.998C414.023,244.696,414.134,244.758,414.244,244.734z"/>
						</g>
					</g>
				</g>
				<path fill="#7C8CC7" d="M450.718,421.162c2.224,6.787-3.356,6.485-16.377,5.849c-1.81-0.1-2.988-2.066,0.129-2.875l9.584-3.657
					c0,0,5.576,0.195,6.523,0.298L450.718,421.162z"/>
				<linearGradient id="SVGID_22_" gradientUnits="userSpaceOnUse" x1="466.4609" y1="351.105" x2="399.7898" y2="385.1073">
					<stop  offset="0" style="stop-color:#21226B"/>
					<stop  offset="0.0386" style="stop-color:#262571"/>
					<stop  offset="0.3288" style="stop-color:#463C9B"/>
					<stop  offset="0.5916" style="stop-color:#5E4DB9"/>
					<stop  offset="0.8157" style="stop-color:#6C57CB"/>
					<stop  offset="0.9747" style="stop-color:#715BD2"/>
				</linearGradient>
				<path fill="url(#SVGID_22_)" d="M423.072,311.664l17.391-0.727l0,0c5.778,6.518,7.89,15.516,5.585,23.916
					c-0.951,3.465-1.733,6.636-1.813,8.2c-1.273,25.059,0.499,51.288,6.343,77.723l-6.523-0.298
					C433.093,393.026,424.469,350.133,423.072,311.664z"/>
				<path fill="#7C8CC7" d="M426.75,419.934c2.351,6.743-3.234,6.544-16.265,6.152c-1.812-0.067-3.025-2.012,0.074-2.878
					l9.516-3.835c0,0,5.579,0.091,6.526,0.176L426.75,419.934z"/>
				<linearGradient id="SVGID_23_" gradientUnits="userSpaceOnUse" x1="463.4932" y1="345.2886" x2="396.8239" y2="379.2899">
					<stop  offset="0" style="stop-color:#21226B"/>
					<stop  offset="0.0386" style="stop-color:#262571"/>
					<stop  offset="0.3288" style="stop-color:#463C9B"/>
					<stop  offset="0.5916" style="stop-color:#5E4DB9"/>
					<stop  offset="0.8157" style="stop-color:#6C57CB"/>
					<stop  offset="0.9747" style="stop-color:#715BD2"/>
				</linearGradient>
				<path fill="url(#SVGID_23_)" d="M414.768,313.309l14.541-2.88l0,0c5.012,7.123,6.1,16.302,2.868,24.39
					c-1.333,3.338-2.466,6.399-2.721,7.945c-4.077,24.76-5.257,51.021-2.414,77.943l-6.447-1.025
					C412.78,391.173,411.841,351.692,414.768,313.309z"/>
				<linearGradient id="SVGID_24_" gradientUnits="userSpaceOnUse" x1="463.7266" y1="267.7485" x2="393.5019" y2="305.5276">
					<stop  offset="0.0233" style="stop-color:#337E75"/>
					<stop  offset="0.3894" style="stop-color:#3F9780"/>
					<stop  offset="0.7413" style="stop-color:#48A988"/>
					<stop  offset="1" style="stop-color:#4BAF8B"/>
				</linearGradient>
				<path fill="url(#SVGID_24_)" d="M414.462,317.528l27.162-5.344c-6.758-17.144-1.964-34.423-7.818-44.52
					c-2.226-3.84-5.194-6.595-9.218-7.813c-5.913-1.787-12.266,1.821-13.602,7.853c-0.814,3.68,0.076,8.45,1.405,13.772
					C414.486,289.866,414.462,317.528,414.462,317.528z"/>
				<g>
					<path fill="#21226B" d="M408.609,240.977c1.8,1.561,3.239,0.867,5.16,0.107c0.653,1.093,2.652,2.065,3.867,2.387
						c0.88,0.227,1.548,1.308,2.026,2.493c0.747-0.854,1.72-1.228,2.427-0.854c0.908,0.481,1.053,2.014,0.307,3.415
						c-0.439,0.813-1.065,1.413-1.694,1.681c0.014,0.813-0.133,1.733-0.386,2.666c-0.707,2.641,2.4,4.787,4.481,3
						c0.012-0.014,0.025-0.027,0.052-0.041c10.867-9.681,0.947-19.387-1.479-21.254c-2.321-1.786-5.601-2.132-8.268-0.879
						c-1.454,0.666-2.894,1.507-4.2,2.387c-1.56,1.053-2.373,0.8-3.974-0.174C406.155,237.538,407.355,239.884,408.609,240.977z"/>
				</g>
				<g>
					<path fill="#EDC6C9" d="M407.789,266.683c-11.397,3.613-25.086,3.79-38.531,2.159l-0.001,0.008
						c-1.958-1.154-3.485-1.769-4.672-2.053c-1.559-0.373-2.419,1.743-1.053,2.58l1.57,1.236l-2.113,0.028
						c-1.654-0.108-2.975,0.047-4.022,0.337c-2.924,0.805-3.059,5.059-0.159,5.948c4.434,1.36,10.494-2.28,10.494-2.28v-0.002
						c14.805,3.526,31.975,6.354,44.85,3.502L407.789,266.683z"/>
					<linearGradient id="SVGID_25_" gradientUnits="userSpaceOnUse" x1="442.3535" y1="255.1714" x2="399.6853" y2="279.6167">
						<stop  offset="0.0233" style="stop-color:#337E75"/>
						<stop  offset="0.3894" style="stop-color:#3F9780"/>
						<stop  offset="0.7413" style="stop-color:#48A988"/>
						<stop  offset="1" style="stop-color:#4BAF8B"/>
					</linearGradient>
					<path fill="url(#SVGID_25_)" d="M429.136,267.543c-0.208,1.133-0.74,2.235-1.62,3.173c-1.666,1.764-3.589,3.275-5.66,4.488
						c-2.087,1.222-4.35,2.139-6.709,2.72c-0.336,0.083-0.665,0.153-0.995,0.223l-6.362-11.464c4.215-1.327,8.115-3.13,11.58-5.488
						c1.685-1.152,3.815-1.427,5.727-0.732C428.143,261.581,429.661,264.663,429.136,267.543z"/>
				</g>
			</g>
		</g>
		<g>
			<ellipse fill="#006E92" cx="64.775" cy="425.392" rx="50.289" ry="5.251"/>
			<g>
				<path fill="#EDC6C9" d="M68.945,276.075l0.241-0.194c0.957-0.777,2.141-1.208,3.374-1.224
					c8.398-0.108,25.414-1.542,25.414-1.542l18.263-20.25c0.012-1.465-0.237-2.127,0.873-3.677c3.723-5.293,4.462-5.187,1.797,1.086
					c2.678-3.291,5.145-6.684,7.712-5.052c0.77,0.487,1.099,1.468,0.877,2.35c-0.919,3.645-4.014,5.911-8.456,7.32l0.147,0.104
					c-2.913,6.892-10.205,15.775-14.714,20.903c-2.423,2.752-5.588,4.732-9.125,5.697c-5.953,1.622-15.677,3.975-22.758,4.218
					c-1.329,0.045-2.63-0.396-3.66-1.236l0,0C66.24,282.38,66.246,278.264,68.945,276.075z"/>
				<g>
					<g>
						<path fill="#F6F9FD" d="M119.949,187.025c0.442,27.221,22.87,48.93,50.089,48.488c3.45-0.058,6.805-0.467,10.041-1.195
							c5.184-1.162,10.045-3.139,14.463-5.784c7.749-4.645,14.114-11.348,18.329-19.355c2.916-5.54,4.82-11.698,5.438-18.221
							c0.172-1.814,0.248-3.666,0.217-5.534c-0.378-23.301-16.858-42.553-38.662-47.344c-3.675-0.807-7.506-1.207-11.427-1.143
							c-2.581,0.042-5.112,0.286-7.58,0.701c-9.128,1.564-17.388,5.64-24.045,11.471c-3.934,3.427-7.309,7.47-9.981,11.975
							C122.319,168.662,119.796,177.558,119.949,187.025z"/>
						<g>
							<defs>
								<circle id="SVGID_26_" cx="169.009" cy="186.231" r="49.296"/>
							</defs>
							<clipPath id="SVGID_27_">
								<use xlink:href="#SVGID_26_"  overflow="visible"/>
							</clipPath>
							<g clip-path="url(#SVGID_27_)">
								<path fill="#715BD2" d="M136.938,151.228l94.623-1.538l1.538,94.623l-94.623,1.538L136.938,151.228z M223.798,157.708
									l-78.842,1.282l1.282,78.842l78.843-1.281L223.798,157.708z"/>
							</g>
							<g clip-path="url(#SVGID_27_)">
								<linearGradient id="SVGID_28_" gradientUnits="userSpaceOnUse" x1="148.9961" y1="185.52" x2="258.3691" y2="185.52">
									<stop  offset="0.0233" style="stop-color:#337E75"/>
									<stop  offset="0.3894" style="stop-color:#3F9780"/>
									<stop  offset="0.7413" style="stop-color:#48A988"/>
									<stop  offset="1" style="stop-color:#4BAF8B"/>
								</linearGradient>
								<path fill="url(#SVGID_28_)" d="M174.19,232.418c-0.277,0.005-0.558-0.008-0.837-0.037
									c-2.124-0.222-4.028-1.408-5.163-3.216l-18.13-28.874c-2.04-3.25-1.061-7.541,2.19-9.582c3.25-2.041,7.54-1.062,9.583,2.191
									l13.415,21.365l71.175-73.528c2.671-2.76,7.07-2.83,9.829-0.16c2.758,2.669,2.829,7.07,0.16,9.827l-77.342,79.898
									C177.781,231.636,176.021,232.389,174.19,232.418z"/>
							</g>
						</g>
						<g>
							<path fill="#F6F9FD" d="M160.856,137.637l52.015,71.542c2.916-5.54,4.82-11.698,5.438-18.221l-38.445-52.878
								c-3.675-0.807-7.506-1.207-11.427-1.143C165.855,136.978,163.324,137.222,160.856,137.637z"/>
							<path fill="#F6F9FD" d="M126.83,161.083l53.249,73.235c5.184-1.162,10.045-3.139,14.463-5.784l-57.73-79.426
								C132.878,152.535,129.503,156.578,126.83,161.083z"/>
						</g>
					</g>
					<g>
						<g>
							<circle fill="#F6F7FB" cx="137.335" cy="176.422" r="9.701"/>
							<circle fill="#F6F7FB" cx="154.032" cy="155.806" r="5.189"/>
						</g>
						<linearGradient id="SVGID_29_" gradientUnits="userSpaceOnUse" x1="90.3496" y1="285.1929" x2="198.271" y2="149.7753">
							<stop  offset="0.0117" style="stop-color:#7C8CC7"/>
							<stop  offset="0.3621" style="stop-color:#8A9EE0"/>
							<stop  offset="0.7492" style="stop-color:#97AEF6"/>
							<stop  offset="1" style="stop-color:#9BB4FE"/>
						</linearGradient>
						<path fill="url(#SVGID_29_)" d="M95.852,289.562L95.852,289.562c3.853,2.754,9.206,1.861,11.96-1.989l34.837-48.738
							c10.809,5.472,23.393,7.682,36.262,5.541c32.125-5.344,53.833-35.715,48.49-67.84c-5.344-32.125-35.717-53.833-67.841-48.49
							c-32.124,5.343-53.834,35.716-48.49,67.839c2.189,13.154,8.577,24.557,17.56,33.076l-34.767,48.641
							C91.109,281.455,92,286.809,95.852,289.562z M177.197,234.079c-26.434,4.398-51.435-13.472-55.831-39.906
							c-4.396-26.433,13.474-51.434,39.906-55.83c26.443-4.398,51.434,13.473,55.83,39.906
							C221.5,204.682,203.641,229.681,177.197,234.079z"/>
					</g>
				</g>
				<g>
					<linearGradient id="SVGID_30_" gradientUnits="userSpaceOnUse" x1="45.2373" y1="365.2974" x2="94.8571" y2="380.3717">
						<stop  offset="0" style="stop-color:#21226B"/>
						<stop  offset="0.0386" style="stop-color:#262571"/>
						<stop  offset="0.3288" style="stop-color:#463C9B"/>
						<stop  offset="0.5916" style="stop-color:#5E4DB9"/>
						<stop  offset="0.8157" style="stop-color:#6C57CB"/>
						<stop  offset="0.9747" style="stop-color:#715BD2"/>
					</linearGradient>
					<path fill="url(#SVGID_30_)" d="M84.473,332.994c8.782,27.049,4.278,56.656-10.035,83.537h-6.126
						c11.369-30.678,14.815-57.688,3.998-73.85L84.473,332.994z"/>
					<linearGradient id="SVGID_31_" gradientUnits="userSpaceOnUse" x1="66.417" y1="419.728" x2="88.3428" y2="419.728">
						<stop  offset="0.0233" style="stop-color:#337E75"/>
						<stop  offset="0.3894" style="stop-color:#3F9780"/>
						<stop  offset="0.7413" style="stop-color:#48A988"/>
						<stop  offset="1" style="stop-color:#4BAF8B"/>
					</linearGradient>
					<path fill="url(#SVGID_31_)" d="M68.416,416.314l-1.628,2.714c-1.017,1.692,0.175,3.85,2.148,3.893l18.518,0.222
						c0.521,0.006,0.942-0.444,0.883-0.962c-0.193-1.66-1.285-2.596-3.825-3.424l-10.014-2.442H68.416z"/>
					<linearGradient id="SVGID_32_" gradientUnits="userSpaceOnUse" x1="45.2959" y1="365.1001" x2="94.9153" y2="380.1743">
						<stop  offset="0" style="stop-color:#21226B"/>
						<stop  offset="0.0386" style="stop-color:#262571"/>
						<stop  offset="0.3288" style="stop-color:#463C9B"/>
						<stop  offset="0.5916" style="stop-color:#5E4DB9"/>
						<stop  offset="0.8157" style="stop-color:#6C57CB"/>
						<stop  offset="0.9747" style="stop-color:#715BD2"/>
					</linearGradient>
					<path fill="url(#SVGID_32_)" d="M88.487,324.757c-0.184,0.545-0.374,1.096-0.567,1.656
						c-8.338,28.188-23.21,60.026-47.937,93.313h-6.076c16.194-28.129,27.867-55.383,33.186-77.041
						c-9.036-10.517-4.561-15.788-0.237-25.032c0.658-1.28,1.249-2.461,1.778-3.55C72.979,318.12,79.015,323.209,88.487,324.757z"/>
					<path fill="#E7B3B7" d="M71.125,269.776c0,0-2.633,5.143-1.688,7.373h7.6c0,0-0.397-3.965,1.275-7.063L71.125,269.776z"/>
					<g>
						<path fill="#EDC6C9" d="M68.594,269.751c-2.326-2.165-3.865-5.096-4.104-8.264c-0.152-2.056,0.197-3.922,1.231-4.979
							c2.449-2.507,6.542-4.792,12.296,2.369c0.007,0,4.238-0.206,1.81,2.108c2.171,2.896,2.551,7.204,0.332,9.914
							c-1.19,1.451-3.513,1.895-5.894,1.637c-2.036-0.221-3.926-1.157-5.422-2.552L68.594,269.751z"/>
						
							<ellipse transform="matrix(-0.7235 0.6903 -0.6903 -0.7235 308.6904 394.3004)" fill="#4546CF" cx="75.387" cy="258.965" rx="0.587" ry="0.719"/>
						<g>
							<path fill="#4546CF" d="M72.481,259.3c0.077-0.066,0.113-0.175,0.084-0.281c-0.482-1.654,0.963-2.182,1.025-2.203
								c0.142-0.048,0.214-0.202,0.167-0.345c-0.049-0.142-0.203-0.218-0.345-0.168c-0.692,0.241-1.867,1.152-1.371,2.869
								c0.042,0.143,0.192,0.227,0.338,0.184C72.419,259.345,72.453,259.326,72.481,259.3z"/>
						</g>
						<g>
							<path fill="#4546CF" d="M79.825,262.79c-0.095-0.039-0.21-0.025-0.292,0.046c-1.286,1.148-2.383,0.07-2.431,0.023
								c-0.104-0.104-0.275-0.104-0.383-0.001c-0.106,0.106-0.107,0.277,0,0.384c0.515,0.521,1.843,1.188,3.177,0
								c0.112-0.1,0.122-0.271,0.021-0.384C79.891,262.828,79.858,262.805,79.825,262.79z"/>
						</g>
					</g>
					<linearGradient id="SVGID_33_" gradientUnits="userSpaceOnUse" x1="31.9043" y1="423.1411" x2="53.8301" y2="423.1411">
						<stop  offset="0.0233" style="stop-color:#337E75"/>
						<stop  offset="0.3894" style="stop-color:#3F9780"/>
						<stop  offset="0.7413" style="stop-color:#48A988"/>
						<stop  offset="1" style="stop-color:#4BAF8B"/>
					</linearGradient>
					<path fill="url(#SVGID_33_)" d="M33.905,419.728l-1.631,2.713c-1.016,1.692,0.178,3.851,2.149,3.893l18.517,0.222
						c0.521,0.007,0.943-0.444,0.884-0.96c-0.194-1.661-1.285-2.598-3.824-3.425l-10.015-2.442H33.905z"/>
					<linearGradient id="SVGID_34_" gradientUnits="userSpaceOnUse" x1="64.2031" y1="300.3198" x2="104.4023" y2="298.6449">
						<stop  offset="0.0233" style="stop-color:#337E75"/>
						<stop  offset="0.3894" style="stop-color:#3F9780"/>
						<stop  offset="0.7413" style="stop-color:#48A988"/>
						<stop  offset="1" style="stop-color:#4BAF8B"/>
					</linearGradient>
					<path fill="url(#SVGID_34_)" d="M88.487,324.757c-9.473-1.548-15.508-6.638-19.854-10.654
						c6.009-12.408,6.636-10.605,1.17-23.169c-0.514-1.18-0.935-2.406-1.142-3.678c-0.881-5.503-0.934-11.443,3.811-12.623
						c3.306-0.819,6.85,1.693,11.502,3.016c7.852,2.232,12.207,7.486,10.51,13.178c-0.294,0.986-2.396,4.974-2.396,4.974
						s-1.768,12.654-2.572,18.303C88.604,320.514,88.487,324.757,88.487,324.757z"/>
					<path fill="#EDC6C9" d="M72.229,276.507l0.249-0.233c0.987-0.927,2.25-1.495,3.599-1.61c9.196-0.791,27.724-3.726,27.724-3.726
						l18.389-23.653c-0.104-1.605-0.429-2.313,0.663-4.099c3.654-6.099,4.475-6.039,2.057,1.046
						c2.669-3.821,5.101-7.733,8.046-6.153c0.88,0.472,1.321,1.52,1.149,2.503c-0.717,4.068-3.926,6.799-8.681,8.699l0.17,0.104
						c-2.639,7.783-9.918,18.103-14.448,24.082c-2.433,3.21-5.742,5.635-9.541,6.975c-6.395,2.255-16.858,5.612-24.598,6.445
						c-1.452,0.156-2.915-0.224-4.11-1.063l0,0C69.771,283.632,69.449,279.123,72.229,276.507z"/>
					<g>
						<path fill="#21226B" d="M55.259,258.374c2.564-7.19,11.636-9.691,18.938-7.229c0,0-1.348,5.46-6.028,8.04
							c0.88-0.13,4.209,2.531,4.99,3.788c-1.091-0.129-2.352-0.956-3.168,0.212c-0.702,1.007-0.196,2.487,0.624,3.241
							c0.719,0.66,1.469,0.744,2.295,1.059c-0.025,2.831,0.863,4.414,3.101,5.109c-0.097,0.085-0.194,0.17-0.289,0.253
							c-8.893,7.697-22.876,0.228-21.214-11.413C54.652,260.417,54.896,259.392,55.259,258.374z"/>
					</g>
					<g>
						<path fill="#21226B" d="M64.673,272.205c2.822-0.516,7.952,2.356,5.896,12.504c-0.6,2.956-3.76,3.563-6.071,2.192
							c-2.602-1.544-4.479-5.239-4.454-8.221C60.063,276.073,61.848,272.717,64.673,272.205z"/>
					</g>
				</g>
			</g>
		</g>
	</g>
</g>
</svg>
